{
    "asset": {
        "version": "2.0",
        "generator": "Open Asset Import Library (assimp v5.4.0)"
    },
    "extensionsUsed": [
        "KHR_materials_volume",
        "FB_ngon_encoding"
    ],
    "accessors": [
        {
            "bufferView": 0,
            "byteOffset": 0,
            "componentType": 5126,
            "count": 87199,
            "type": "VEC3",
            "max": [
                174.93734741210938,
                175.5,
                10.0
            ],
            "min": [
                -173.93482971191406,
                -176.5,
                0.0
            ]
        },
        {
            "bufferView": 1,
            "byteOffset": 0,
            "componentType": 5126,
            "count": 87199,
            "type": "VEC3",
            "max": [
                0.9950125813484192,
                0.9950371980667114,
                1.0
            ],
            "min": [
                -0.9950125813484192,
                -0.9950371980667114,
                -1.0
            ]
        },
        {
            "bufferView": 2,
            "byteOffset": 0,
            "componentType": 5126,
            "count": 87199,
            "type": "VEC2",
            "max": [
                0.9373433589935303,
                0.9512820243835449
            ],
            "min": [
                0.06516290456056595,
                0.04871797561645508
            ]
        },
        {
            "bufferView": 3,
            "byteOffset": 0,
            "componentType": 5125,
            "count": 451392,
            "type": "SCALAR",
            "max": [
                87198
            ],
            "min": [
                0
            ]
        }
    ],
    "buffers": [
        {
            "byteLength": 4595936,
            "uri": "Opened Pill_0.bin"
        }
    ],
    "bufferViews": [
        {
            "buffer": 0,
            "byteOffset": 0,
            "byteLength": 1046388,
            "target": 34962
        },
        {
            "buffer": 0,
            "byteOffset": 1046388,
            "byteLength": 1046388,
            "target": 34962
        },
        {
            "buffer": 0,
            "byteOffset": 2092776,
            "byteLength": 697592,
            "target": 34962
        },
        {
            "buffer": 0,
            "byteOffset": 2790368,
            "byteLength": 1805568,
            "target": 34963
        }
    ],
    "images": [
        {
            "uri": "textures/image_0.png"
        }
    ],
    "materials": [
        {
            "name": "Default Material",
            "pbrMetallicRoughness": {
                "baseColorTexture": {
                    "index": 0
                },
                "baseColorFactor": [
                    0.4019777774810791,
                    0.4019777774810791,
                    0.4019777774810791,
                    1.0
                ],
                "metallicFactor": 0.30000001192092896,
                "roughnessFactor": 0.44999998807907104
            }
        }
    ],
    "meshes": [
        {
            "name": "meshes[0]",
            "primitives": [
                {
                    "mode": 4,
                    "material": 0,
                    "indices": 3,
                    "attributes": {
                        "POSITION": 0,
                        "NORMAL": 1,
                        "TEXCOORD_0": 2
                    }
                }
            ]
        }
    ],
    "nodes": [
        {
            "name": "Opened Pill",
            "children": [
                1
            ]
        },
        {
            "name": "nodes[0]",
            "mesh": 0
        }
    ],
    "samplers": [
        {
            "wrapS": 33071,
            "wrapT": 33071,
            "magFilter": 9729,
            "minFilter": 9987
        }
    ],
    "scenes": [
        {
            "nodes": [
                0
            ]
        }
    ],
    "textures": [
        {
            "source": 0,
            "sampler": 0
        }
    ],
    "scene": 0
}